<mxfile host="app.diagrams.net" modified="2023-09-03T17:59:13.774Z" agent="Mozilla/5.0 (Windows NT 10.0; Win64; x64) AppleWebKit/537.36 (KHTML, like Gecko) Chrome/116.0.0.0 Safari/537.36" etag="Hlwi_WfPxWNCCAfb8DjH" version="21.7.2" type="device">
  <diagram name="Page-1" id="2YBvvXClWsGukQMizWep">
    <mxGraphModel dx="683" dy="361" grid="1" gridSize="10" guides="1" tooltips="1" connect="1" arrows="1" fold="1" page="1" pageScale="1" pageWidth="850" pageHeight="1100" math="0" shadow="0">
      <root>
        <mxCell id="0" />
        <mxCell id="1" parent="0" />
        <mxCell id="aM9ryv3xv72pqoxQDRHE-1" value="&lt;u style=&quot;font-size: 13px;&quot;&gt;customer&lt;/u&gt;" style="shape=umlLifeline;perimeter=lifelinePerimeter;whiteSpace=wrap;html=1;container=0;dropTarget=0;collapsible=0;recursiveResize=0;outlineConnect=0;portConstraint=eastwest;newEdgeStyle={&quot;edgeStyle&quot;:&quot;elbowEdgeStyle&quot;,&quot;elbow&quot;:&quot;vertical&quot;,&quot;curved&quot;:0,&quot;rounded&quot;:0};fontFamily=Times New Roman;fontSize=13;" parent="1" vertex="1">
          <mxGeometry x="60" y="40" width="100" height="1060" as="geometry" />
        </mxCell>
        <mxCell id="aM9ryv3xv72pqoxQDRHE-2" value="" style="html=1;points=[];perimeter=orthogonalPerimeter;outlineConnect=0;targetShapes=umlLifeline;portConstraint=eastwest;newEdgeStyle={&quot;edgeStyle&quot;:&quot;elbowEdgeStyle&quot;,&quot;elbow&quot;:&quot;vertical&quot;,&quot;curved&quot;:0,&quot;rounded&quot;:0};fontFamily=Times New Roman;fontSize=13;" parent="aM9ryv3xv72pqoxQDRHE-1" vertex="1">
          <mxGeometry x="45" y="70" width="10" height="960" as="geometry" />
        </mxCell>
        <mxCell id="aM9ryv3xv72pqoxQDRHE-5" value="&lt;u style=&quot;font-size: 13px;&quot;&gt;shop&lt;/u&gt;" style="shape=umlLifeline;perimeter=lifelinePerimeter;whiteSpace=wrap;html=1;container=0;dropTarget=0;collapsible=0;recursiveResize=0;outlineConnect=0;portConstraint=eastwest;newEdgeStyle={&quot;edgeStyle&quot;:&quot;elbowEdgeStyle&quot;,&quot;elbow&quot;:&quot;vertical&quot;,&quot;curved&quot;:0,&quot;rounded&quot;:0};fontFamily=Times New Roman;fontSize=13;" parent="1" vertex="1">
          <mxGeometry x="325" y="40" width="100" height="1060" as="geometry" />
        </mxCell>
        <mxCell id="aM9ryv3xv72pqoxQDRHE-6" value="" style="html=1;points=[];perimeter=orthogonalPerimeter;outlineConnect=0;targetShapes=umlLifeline;portConstraint=eastwest;newEdgeStyle={&quot;edgeStyle&quot;:&quot;elbowEdgeStyle&quot;,&quot;elbow&quot;:&quot;vertical&quot;,&quot;curved&quot;:0,&quot;rounded&quot;:0};fontFamily=Times New Roman;fontSize=13;" parent="aM9ryv3xv72pqoxQDRHE-5" vertex="1">
          <mxGeometry x="45" y="80" width="10" height="950" as="geometry" />
        </mxCell>
        <mxCell id="zRI3TL-ee5AhWv-r6EOS-1" value="&lt;u style=&quot;font-size: 13px;&quot;&gt;database&lt;/u&gt;" style="shape=umlLifeline;perimeter=lifelinePerimeter;whiteSpace=wrap;html=1;container=1;dropTarget=0;collapsible=0;recursiveResize=0;outlineConnect=0;portConstraint=eastwest;newEdgeStyle={&quot;edgeStyle&quot;:&quot;elbowEdgeStyle&quot;,&quot;elbow&quot;:&quot;vertical&quot;,&quot;curved&quot;:0,&quot;rounded&quot;:0};fontFamily=Times New Roman;fontSize=13;" parent="1" vertex="1">
          <mxGeometry x="590" y="40" width="100" height="1060" as="geometry" />
        </mxCell>
        <mxCell id="zRI3TL-ee5AhWv-r6EOS-6" value="" style="html=1;points=[];perimeter=orthogonalPerimeter;outlineConnect=0;targetShapes=umlLifeline;portConstraint=eastwest;newEdgeStyle={&quot;edgeStyle&quot;:&quot;elbowEdgeStyle&quot;,&quot;elbow&quot;:&quot;vertical&quot;,&quot;curved&quot;:0,&quot;rounded&quot;:0};fontFamily=Times New Roman;fontSize=13;" parent="zRI3TL-ee5AhWv-r6EOS-1" vertex="1">
          <mxGeometry x="45" y="100" width="10" height="20" as="geometry" />
        </mxCell>
        <mxCell id="zRI3TL-ee5AhWv-r6EOS-3" value="confirm order" style="html=1;verticalAlign=bottom;endArrow=block;edgeStyle=elbowEdgeStyle;elbow=vertical;curved=0;rounded=0;fontFamily=Times New Roman;fontSize=13;" parent="1" source="aM9ryv3xv72pqoxQDRHE-2" target="aM9ryv3xv72pqoxQDRHE-6" edge="1">
          <mxGeometry width="80" relative="1" as="geometry">
            <mxPoint x="360" y="260" as="sourcePoint" />
            <mxPoint x="440" y="260" as="targetPoint" />
            <Array as="points">
              <mxPoint x="290" y="120" />
              <mxPoint x="280" y="130" />
            </Array>
          </mxGeometry>
        </mxCell>
        <mxCell id="zRI3TL-ee5AhWv-r6EOS-5" value="confirm order" style="html=1;verticalAlign=bottom;endArrow=block;edgeStyle=elbowEdgeStyle;elbow=vertical;curved=0;rounded=0;fontFamily=Times New Roman;fontSize=13;" parent="1" source="aM9ryv3xv72pqoxQDRHE-6" target="zRI3TL-ee5AhWv-r6EOS-6" edge="1">
          <mxGeometry width="80" relative="1" as="geometry">
            <mxPoint x="360" y="140" as="sourcePoint" />
            <mxPoint x="620" y="140" as="targetPoint" />
            <Array as="points">
              <mxPoint x="555" y="140" />
              <mxPoint x="545" y="150" />
            </Array>
          </mxGeometry>
        </mxCell>
        <mxCell id="zRI3TL-ee5AhWv-r6EOS-7" value="send receipt" style="html=1;verticalAlign=bottom;endArrow=open;dashed=1;endSize=8;edgeStyle=elbowEdgeStyle;elbow=vertical;curved=0;rounded=0;fontFamily=Times New Roman;fontSize=13;" parent="1" source="zRI3TL-ee5AhWv-r6EOS-6" target="aM9ryv3xv72pqoxQDRHE-6" edge="1">
          <mxGeometry relative="1" as="geometry">
            <mxPoint x="440" y="260" as="sourcePoint" />
            <mxPoint x="360" y="260" as="targetPoint" />
            <Array as="points">
              <mxPoint x="530" y="160" />
            </Array>
          </mxGeometry>
        </mxCell>
        <mxCell id="zRI3TL-ee5AhWv-r6EOS-8" value="displayReceipt" style="html=1;verticalAlign=bottom;endArrow=open;dashed=1;endSize=8;edgeStyle=elbowEdgeStyle;elbow=vertical;curved=0;rounded=0;fontFamily=Times New Roman;fontSize=13;" parent="1" target="aM9ryv3xv72pqoxQDRHE-2" edge="1">
          <mxGeometry relative="1" as="geometry">
            <mxPoint x="370" y="180" as="sourcePoint" />
            <mxPoint x="95" y="180" as="targetPoint" />
            <Array as="points">
              <mxPoint x="265" y="180" />
            </Array>
          </mxGeometry>
        </mxCell>
        <mxCell id="zRI3TL-ee5AhWv-r6EOS-9" value="choose payment method(type)" style="html=1;verticalAlign=bottom;endArrow=block;edgeStyle=elbowEdgeStyle;elbow=vertical;curved=0;rounded=0;fontFamily=Times New Roman;fontSize=13;" parent="1" source="aM9ryv3xv72pqoxQDRHE-2" target="aM9ryv3xv72pqoxQDRHE-6" edge="1">
          <mxGeometry width="80" relative="1" as="geometry">
            <mxPoint x="100" y="200" as="sourcePoint" />
            <mxPoint x="375" y="200" as="targetPoint" />
            <Array as="points">
              <mxPoint x="330" y="300" />
              <mxPoint x="220" y="280" />
              <mxPoint x="330" y="260" />
              <mxPoint x="295" y="200" />
              <mxPoint x="285" y="210" />
            </Array>
          </mxGeometry>
        </mxCell>
        <mxCell id="zRI3TL-ee5AhWv-r6EOS-39" value="" style="group;fontFamily=Times New Roman;fontSize=13;" parent="1" vertex="1" connectable="0">
          <mxGeometry x="9.29" y="320" width="711.42" height="370" as="geometry" />
        </mxCell>
        <mxCell id="zRI3TL-ee5AhWv-r6EOS-10" value="alt" style="shape=umlFrame;whiteSpace=wrap;html=1;pointerEvents=0;fontFamily=Times New Roman;fontSize=13;" parent="zRI3TL-ee5AhWv-r6EOS-39" vertex="1">
          <mxGeometry x="0.7100000000000363" width="709.9999999999999" height="369.99999999999994" as="geometry" />
        </mxCell>
        <mxCell id="zRI3TL-ee5AhWv-r6EOS-11" value="[type = COD]" style="text;html=1;align=center;verticalAlign=middle;resizable=0;points=[];autosize=1;strokeColor=none;fillColor=none;fontFamily=Times New Roman;fontSize=13;" parent="zRI3TL-ee5AhWv-r6EOS-39" vertex="1">
          <mxGeometry x="0.7100000000000364" y="29.210526315789476" width="100" height="30" as="geometry" />
        </mxCell>
        <mxCell id="zRI3TL-ee5AhWv-r6EOS-12" value="information of deliveryman" style="html=1;verticalAlign=bottom;endArrow=open;dashed=1;endSize=8;edgeStyle=elbowEdgeStyle;elbow=vertical;curved=0;rounded=0;fontFamily=Times New Roman;fontSize=13;" parent="zRI3TL-ee5AhWv-r6EOS-39" source="aM9ryv3xv72pqoxQDRHE-6" target="aM9ryv3xv72pqoxQDRHE-2" edge="1">
          <mxGeometry relative="1" as="geometry">
            <mxPoint x="355.71" y="19.473684210526315" as="sourcePoint" />
            <mxPoint x="100.71000000000002" y="19.473684210526315" as="targetPoint" />
            <Array as="points">
              <mxPoint x="250.71" y="19.473684210526315" />
            </Array>
          </mxGeometry>
        </mxCell>
        <mxCell id="zRI3TL-ee5AhWv-r6EOS-13" value="payment through deliveryman" style="html=1;verticalAlign=bottom;endArrow=block;edgeStyle=elbowEdgeStyle;elbow=vertical;curved=0;rounded=0;fontFamily=Times New Roman;fontSize=13;" parent="zRI3TL-ee5AhWv-r6EOS-39" source="aM9ryv3xv72pqoxQDRHE-2" target="aM9ryv3xv72pqoxQDRHE-6" edge="1">
          <mxGeometry width="80" relative="1" as="geometry">
            <mxPoint x="115.71000000000002" y="38.94736842105263" as="sourcePoint" />
            <mxPoint x="370.71" y="38.94736842105263" as="targetPoint" />
            <Array as="points">
              <mxPoint x="295.71" y="38.94736842105263" />
              <mxPoint x="285.71" y="48.68421052631579" />
            </Array>
          </mxGeometry>
        </mxCell>
        <mxCell id="zRI3TL-ee5AhWv-r6EOS-17" value="display confirmation" style="html=1;verticalAlign=bottom;endArrow=open;dashed=1;endSize=8;edgeStyle=elbowEdgeStyle;elbow=vertical;curved=0;rounded=0;fontFamily=Times New Roman;fontSize=13;" parent="zRI3TL-ee5AhWv-r6EOS-39" source="aM9ryv3xv72pqoxQDRHE-6" target="aM9ryv3xv72pqoxQDRHE-2" edge="1">
          <mxGeometry relative="1" as="geometry">
            <mxPoint x="365.71" y="96.88157894736842" as="sourcePoint" />
            <mxPoint x="110.71000000000002" y="96.88157894736842" as="targetPoint" />
            <Array as="points">
              <mxPoint x="260.71" y="96.88157894736842" />
            </Array>
          </mxGeometry>
        </mxCell>
        <mxCell id="zRI3TL-ee5AhWv-r6EOS-18" value="" style="endArrow=none;dashed=1;html=1;rounded=0;exitX=0.003;exitY=0.322;exitDx=0;exitDy=0;exitPerimeter=0;entryX=1.001;entryY=0.31;entryDx=0;entryDy=0;entryPerimeter=0;fontFamily=Times New Roman;fontSize=13;" parent="zRI3TL-ee5AhWv-r6EOS-39" target="zRI3TL-ee5AhWv-r6EOS-10" edge="1">
          <mxGeometry width="50" height="50" relative="1" as="geometry">
            <mxPoint x="2.8400000000000314" y="116.21894736842106" as="sourcePoint" />
            <mxPoint x="709.9999999999999" y="113.9989473684211" as="targetPoint" />
          </mxGeometry>
        </mxCell>
        <mxCell id="zRI3TL-ee5AhWv-r6EOS-19" value="&lt;div style=&quot;font-size: 13px;&quot;&gt;&lt;span style=&quot;background-color: initial; font-size: 13px;&quot;&gt;[type =&lt;br&gt;&lt;/span&gt;&lt;span style=&quot;background-color: initial; font-size: 12px;&quot;&gt;mobile_banking]&lt;/span&gt;&lt;/div&gt;" style="text;html=1;align=left;verticalAlign=middle;resizable=0;points=[];autosize=1;strokeColor=none;fillColor=none;fontFamily=Times New Roman;fontSize=13;" parent="zRI3TL-ee5AhWv-r6EOS-39" vertex="1">
          <mxGeometry x="5.7100000000000355" y="116.8421052631579" width="110" height="40" as="geometry" />
        </mxCell>
        <mxCell id="zRI3TL-ee5AhWv-r6EOS-20" value="options for mobile banking" style="html=1;verticalAlign=bottom;endArrow=open;dashed=1;endSize=8;edgeStyle=elbowEdgeStyle;elbow=vertical;curved=0;rounded=0;fontFamily=Times New Roman;fontSize=13;" parent="zRI3TL-ee5AhWv-r6EOS-39" source="aM9ryv3xv72pqoxQDRHE-6" target="aM9ryv3xv72pqoxQDRHE-2" edge="1">
          <mxGeometry relative="1" as="geometry">
            <mxPoint x="355.71" y="136.31578947368422" as="sourcePoint" />
            <mxPoint x="100.71000000000002" y="136.31578947368422" as="targetPoint" />
            <Array as="points">
              <mxPoint x="255.71" y="135.82894736842107" />
            </Array>
          </mxGeometry>
        </mxCell>
        <mxCell id="zRI3TL-ee5AhWv-r6EOS-21" value="select option and pay(mobile_number)" style="html=1;verticalAlign=bottom;endArrow=block;edgeStyle=elbowEdgeStyle;elbow=vertical;curved=0;rounded=0;fontFamily=Times New Roman;fontSize=13;" parent="zRI3TL-ee5AhWv-r6EOS-39" source="aM9ryv3xv72pqoxQDRHE-2" target="aM9ryv3xv72pqoxQDRHE-6" edge="1">
          <mxGeometry width="80" relative="1" as="geometry">
            <mxPoint x="100.71000000000002" y="155.78947368421052" as="sourcePoint" />
            <mxPoint x="355.71" y="155.78947368421052" as="targetPoint" />
            <Array as="points">
              <mxPoint x="290.71" y="155.78947368421052" />
              <mxPoint x="280.71" y="165.5263157894737" />
            </Array>
          </mxGeometry>
        </mxCell>
        <mxCell id="zRI3TL-ee5AhWv-r6EOS-26" value="display confirmation" style="html=1;verticalAlign=bottom;endArrow=open;dashed=1;endSize=8;edgeStyle=elbowEdgeStyle;elbow=vertical;curved=0;rounded=0;fontFamily=Times New Roman;fontSize=13;" parent="zRI3TL-ee5AhWv-r6EOS-39" source="aM9ryv3xv72pqoxQDRHE-6" target="aM9ryv3xv72pqoxQDRHE-2" edge="1">
          <mxGeometry relative="1" as="geometry">
            <mxPoint x="365.71" y="214.21052631578945" as="sourcePoint" />
            <mxPoint x="110.71000000000002" y="214.21052631578945" as="targetPoint" />
            <Array as="points">
              <mxPoint x="260.71" y="214.21052631578945" />
            </Array>
          </mxGeometry>
        </mxCell>
        <mxCell id="zRI3TL-ee5AhWv-r6EOS-27" value="" style="endArrow=none;dashed=1;html=1;rounded=0;exitX=-0.001;exitY=0.644;exitDx=0;exitDy=0;exitPerimeter=0;entryX=1.001;entryY=0.646;entryDx=0;entryDy=0;entryPerimeter=0;fontFamily=Times New Roman;fontSize=13;" parent="zRI3TL-ee5AhWv-r6EOS-39" edge="1">
          <mxGeometry width="50" height="50" relative="1" as="geometry">
            <mxPoint y="232.4378947368421" as="sourcePoint" />
            <mxPoint x="711.42" y="233.17789473684212" as="targetPoint" />
          </mxGeometry>
        </mxCell>
        <mxCell id="zRI3TL-ee5AhWv-r6EOS-28" value="&lt;div style=&quot;font-size: 13px;&quot;&gt;[type = card ]&lt;/div&gt;" style="text;html=1;align=left;verticalAlign=middle;resizable=0;points=[];autosize=1;strokeColor=none;fillColor=none;fontFamily=Times New Roman;fontSize=13;" parent="zRI3TL-ee5AhWv-r6EOS-39" vertex="1">
          <mxGeometry x="10.710000000000035" y="238.6842105263158" width="90" height="30" as="geometry" />
        </mxCell>
        <mxCell id="zRI3TL-ee5AhWv-r6EOS-29" value="request for required information" style="html=1;verticalAlign=bottom;endArrow=open;dashed=1;endSize=8;edgeStyle=elbowEdgeStyle;elbow=vertical;curved=0;rounded=0;fontFamily=Times New Roman;fontSize=13;" parent="zRI3TL-ee5AhWv-r6EOS-39" source="aM9ryv3xv72pqoxQDRHE-6" target="aM9ryv3xv72pqoxQDRHE-2" edge="1">
          <mxGeometry relative="1" as="geometry">
            <mxPoint x="355.71" y="252.67105263157896" as="sourcePoint" />
            <mxPoint x="100.71000000000002" y="252.67105263157896" as="targetPoint" />
            <Array as="points">
              <mxPoint x="255.71" y="252.67105263157896" />
            </Array>
          </mxGeometry>
        </mxCell>
        <mxCell id="zRI3TL-ee5AhWv-r6EOS-30" value="provide required information(card_number)" style="html=1;verticalAlign=bottom;endArrow=block;edgeStyle=elbowEdgeStyle;elbow=vertical;curved=0;rounded=0;fontFamily=Times New Roman;fontSize=13;" parent="zRI3TL-ee5AhWv-r6EOS-39" source="aM9ryv3xv72pqoxQDRHE-2" target="aM9ryv3xv72pqoxQDRHE-6" edge="1">
          <mxGeometry width="80" relative="1" as="geometry">
            <mxPoint x="110.71000000000002" y="272.63157894736844" as="sourcePoint" />
            <mxPoint x="365.71" y="272.63157894736844" as="targetPoint" />
            <Array as="points">
              <mxPoint x="295.71" y="272.63157894736844" />
              <mxPoint x="285.71" y="282.36842105263156" />
            </Array>
          </mxGeometry>
        </mxCell>
        <mxCell id="zRI3TL-ee5AhWv-r6EOS-31" value="pay for chosen product" style="html=1;verticalAlign=bottom;endArrow=block;edgeStyle=elbowEdgeStyle;elbow=vertical;curved=0;rounded=0;fontFamily=Times New Roman;fontSize=13;" parent="zRI3TL-ee5AhWv-r6EOS-39" source="aM9ryv3xv72pqoxQDRHE-2" target="aM9ryv3xv72pqoxQDRHE-6" edge="1">
          <mxGeometry width="80" relative="1" as="geometry">
            <mxPoint x="100.71000000000002" y="292.10526315789474" as="sourcePoint" />
            <mxPoint x="355.71" y="292.10526315789474" as="targetPoint" />
            <Array as="points">
              <mxPoint x="290.71" y="292.10526315789474" />
              <mxPoint x="280.71" y="301.8421052631579" />
            </Array>
          </mxGeometry>
        </mxCell>
        <mxCell id="zRI3TL-ee5AhWv-r6EOS-35" value="display confirmation" style="html=1;verticalAlign=bottom;endArrow=open;dashed=1;endSize=8;edgeStyle=elbowEdgeStyle;elbow=vertical;curved=0;rounded=0;fontFamily=Times New Roman;fontSize=13;" parent="zRI3TL-ee5AhWv-r6EOS-39" source="aM9ryv3xv72pqoxQDRHE-6" target="aM9ryv3xv72pqoxQDRHE-2" edge="1">
          <mxGeometry relative="1" as="geometry">
            <mxPoint x="365.71" y="350.5263157894737" as="sourcePoint" />
            <mxPoint x="110.71000000000002" y="350.5263157894737" as="targetPoint" />
            <Array as="points">
              <mxPoint x="265.71" y="350.5263157894737" />
            </Array>
          </mxGeometry>
        </mxCell>
        <mxCell id="zRI3TL-ee5AhWv-r6EOS-15" value="" style="html=1;points=[];perimeter=orthogonalPerimeter;outlineConnect=0;targetShapes=umlLifeline;portConstraint=eastwest;newEdgeStyle={&quot;edgeStyle&quot;:&quot;elbowEdgeStyle&quot;,&quot;elbow&quot;:&quot;vertical&quot;,&quot;curved&quot;:0,&quot;rounded&quot;:0};fontFamily=Times New Roman;fontSize=13;" parent="zRI3TL-ee5AhWv-r6EOS-39" vertex="1">
          <mxGeometry x="625.7099999999999" y="48.68421052631579" width="9.999999999999998" height="19.473684210526315" as="geometry" />
        </mxCell>
        <mxCell id="zRI3TL-ee5AhWv-r6EOS-23" value="" style="html=1;points=[];perimeter=orthogonalPerimeter;outlineConnect=0;targetShapes=umlLifeline;portConstraint=eastwest;newEdgeStyle={&quot;edgeStyle&quot;:&quot;elbowEdgeStyle&quot;,&quot;elbow&quot;:&quot;vertical&quot;,&quot;curved&quot;:0,&quot;rounded&quot;:0};fontFamily=Times New Roman;fontSize=13;" parent="zRI3TL-ee5AhWv-r6EOS-39" vertex="1">
          <mxGeometry x="625.7099999999999" y="169.9963157894737" width="9.999999999999998" height="19.473684210526315" as="geometry" />
        </mxCell>
        <mxCell id="zRI3TL-ee5AhWv-r6EOS-33" value="" style="html=1;points=[];perimeter=orthogonalPerimeter;outlineConnect=0;targetShapes=umlLifeline;portConstraint=eastwest;newEdgeStyle={&quot;edgeStyle&quot;:&quot;elbowEdgeStyle&quot;,&quot;elbow&quot;:&quot;vertical&quot;,&quot;curved&quot;:0,&quot;rounded&quot;:0};fontFamily=Times New Roman;fontSize=13;" parent="zRI3TL-ee5AhWv-r6EOS-39" vertex="1">
          <mxGeometry x="625.71" y="300" width="10" height="29.48" as="geometry" />
        </mxCell>
        <mxCell id="zRI3TL-ee5AhWv-r6EOS-14" value="receive payment" style="html=1;verticalAlign=bottom;endArrow=block;edgeStyle=elbowEdgeStyle;elbow=vertical;curved=0;rounded=0;fontFamily=Times New Roman;fontSize=13;" parent="1" source="aM9ryv3xv72pqoxQDRHE-6" target="zRI3TL-ee5AhWv-r6EOS-15" edge="1">
          <mxGeometry width="80" relative="1" as="geometry">
            <mxPoint x="380" y="370" as="sourcePoint" />
            <mxPoint x="635" y="370" as="targetPoint" />
            <Array as="points">
              <mxPoint x="570" y="370" />
              <mxPoint x="560" y="380" />
            </Array>
          </mxGeometry>
        </mxCell>
        <mxCell id="zRI3TL-ee5AhWv-r6EOS-16" value="send confirmation" style="html=1;verticalAlign=bottom;endArrow=open;dashed=1;endSize=8;edgeStyle=elbowEdgeStyle;elbow=vertical;curved=0;rounded=0;fontFamily=Times New Roman;fontSize=13;" parent="1" source="zRI3TL-ee5AhWv-r6EOS-15" target="aM9ryv3xv72pqoxQDRHE-6" edge="1">
          <mxGeometry relative="1" as="geometry">
            <mxPoint x="635" y="390" as="sourcePoint" />
            <mxPoint x="380" y="390" as="targetPoint" />
            <Array as="points">
              <mxPoint x="530" y="390" />
            </Array>
          </mxGeometry>
        </mxCell>
        <mxCell id="zRI3TL-ee5AhWv-r6EOS-22" value="receive payment" style="html=1;verticalAlign=bottom;endArrow=block;edgeStyle=elbowEdgeStyle;elbow=vertical;curved=0;rounded=0;fontFamily=Times New Roman;fontSize=13;" parent="1" source="aM9ryv3xv72pqoxQDRHE-6" target="zRI3TL-ee5AhWv-r6EOS-23" edge="1">
          <mxGeometry width="80" relative="1" as="geometry">
            <mxPoint x="380" y="490" as="sourcePoint" />
            <mxPoint x="635" y="490" as="targetPoint" />
            <Array as="points">
              <mxPoint x="565" y="490" />
              <mxPoint x="555" y="500" />
            </Array>
          </mxGeometry>
        </mxCell>
        <mxCell id="zRI3TL-ee5AhWv-r6EOS-24" value="send confirmation" style="html=1;verticalAlign=bottom;endArrow=open;dashed=1;endSize=8;edgeStyle=elbowEdgeStyle;elbow=vertical;curved=0;rounded=0;fontFamily=Times New Roman;fontSize=13;" parent="1" source="zRI3TL-ee5AhWv-r6EOS-23" target="aM9ryv3xv72pqoxQDRHE-6" edge="1">
          <mxGeometry relative="1" as="geometry">
            <mxPoint x="635" y="510" as="sourcePoint" />
            <mxPoint x="380" y="510" as="targetPoint" />
            <Array as="points">
              <mxPoint x="530" y="510" />
            </Array>
          </mxGeometry>
        </mxCell>
        <mxCell id="zRI3TL-ee5AhWv-r6EOS-32" value="receive payment" style="html=1;verticalAlign=bottom;endArrow=block;edgeStyle=elbowEdgeStyle;elbow=vertical;curved=0;rounded=0;fontFamily=Times New Roman;fontSize=13;" parent="1" source="aM9ryv3xv72pqoxQDRHE-6" target="zRI3TL-ee5AhWv-r6EOS-33" edge="1">
          <mxGeometry width="80" relative="1" as="geometry">
            <mxPoint x="380" y="630" as="sourcePoint" />
            <mxPoint x="635" y="630" as="targetPoint" />
            <Array as="points">
              <mxPoint x="565" y="630" />
              <mxPoint x="555" y="640" />
            </Array>
          </mxGeometry>
        </mxCell>
        <mxCell id="zRI3TL-ee5AhWv-r6EOS-34" value="send confirmation" style="html=1;verticalAlign=bottom;endArrow=open;dashed=1;endSize=8;edgeStyle=elbowEdgeStyle;elbow=vertical;curved=0;rounded=0;fontFamily=Times New Roman;fontSize=13;" parent="1" source="zRI3TL-ee5AhWv-r6EOS-33" target="aM9ryv3xv72pqoxQDRHE-6" edge="1">
          <mxGeometry relative="1" as="geometry">
            <mxPoint x="635" y="650" as="sourcePoint" />
            <mxPoint x="380" y="650" as="targetPoint" />
            <Array as="points">
              <mxPoint x="530" y="650" />
            </Array>
          </mxGeometry>
        </mxCell>
        <mxCell id="zRI3TL-ee5AhWv-r6EOS-40" value="request for delivery address" style="html=1;verticalAlign=bottom;endArrow=open;dashed=1;endSize=8;edgeStyle=elbowEdgeStyle;elbow=vertical;curved=0;rounded=0;fontFamily=Times New Roman;fontSize=13;" parent="1" source="aM9ryv3xv72pqoxQDRHE-6" target="aM9ryv3xv72pqoxQDRHE-2" edge="1">
          <mxGeometry relative="1" as="geometry">
            <mxPoint x="380" y="190" as="sourcePoint" />
            <mxPoint x="125" y="190" as="targetPoint" />
            <Array as="points">
              <mxPoint x="330" y="200" />
              <mxPoint x="240" y="210" />
            </Array>
          </mxGeometry>
        </mxCell>
        <mxCell id="zRI3TL-ee5AhWv-r6EOS-41" value="provide delivery address(address)" style="html=1;verticalAlign=bottom;endArrow=block;edgeStyle=elbowEdgeStyle;elbow=vertical;curved=0;rounded=0;fontFamily=Times New Roman;fontSize=13;" parent="1" source="aM9ryv3xv72pqoxQDRHE-2" target="aM9ryv3xv72pqoxQDRHE-6" edge="1">
          <mxGeometry width="80" relative="1" as="geometry">
            <mxPoint x="120" y="220" as="sourcePoint" />
            <mxPoint x="375" y="220" as="targetPoint" />
            <Array as="points">
              <mxPoint x="335" y="220" />
              <mxPoint x="300" y="160" />
              <mxPoint x="290" y="170" />
            </Array>
          </mxGeometry>
        </mxCell>
        <mxCell id="zRI3TL-ee5AhWv-r6EOS-42" value="confirm delivery address" style="html=1;verticalAlign=bottom;endArrow=block;edgeStyle=elbowEdgeStyle;elbow=vertical;curved=0;rounded=0;fontFamily=Times New Roman;fontSize=13;" parent="1" source="zRI3TL-ee5AhWv-r6EOS-43" edge="1">
          <mxGeometry y="-80" width="80" relative="1" as="geometry">
            <mxPoint x="380" y="240" as="sourcePoint" />
            <mxPoint x="635" y="240" as="targetPoint" />
            <Array as="points">
              <mxPoint x="590" y="240" />
              <mxPoint x="565" y="180" />
              <mxPoint x="555" y="190" />
            </Array>
            <mxPoint x="-80" y="-80" as="offset" />
          </mxGeometry>
        </mxCell>
        <mxCell id="zRI3TL-ee5AhWv-r6EOS-44" value="" style="html=1;verticalAlign=bottom;endArrow=block;edgeStyle=elbowEdgeStyle;elbow=vertical;curved=0;rounded=0;fontFamily=Times New Roman;fontSize=13;" parent="1" target="zRI3TL-ee5AhWv-r6EOS-43" edge="1">
          <mxGeometry width="80" relative="1" as="geometry">
            <mxPoint x="380" y="240" as="sourcePoint" />
            <mxPoint x="635" y="240" as="targetPoint" />
            <Array as="points" />
          </mxGeometry>
        </mxCell>
        <mxCell id="zRI3TL-ee5AhWv-r6EOS-43" value="" style="html=1;points=[];perimeter=orthogonalPerimeter;outlineConnect=0;targetShapes=umlLifeline;portConstraint=eastwest;newEdgeStyle={&quot;edgeStyle&quot;:&quot;elbowEdgeStyle&quot;,&quot;elbow&quot;:&quot;vertical&quot;,&quot;curved&quot;:0,&quot;rounded&quot;:0};fontFamily=Times New Roman;fontSize=13;" parent="1" vertex="1">
          <mxGeometry x="635" y="240" width="10" height="20" as="geometry" />
        </mxCell>
        <mxCell id="zRI3TL-ee5AhWv-r6EOS-45" value="send confirmation" style="html=1;verticalAlign=bottom;endArrow=open;dashed=1;endSize=8;edgeStyle=elbowEdgeStyle;elbow=vertical;curved=0;rounded=0;fontFamily=Times New Roman;fontSize=13;" parent="1" source="zRI3TL-ee5AhWv-r6EOS-43" target="aM9ryv3xv72pqoxQDRHE-6" edge="1">
          <mxGeometry relative="1" as="geometry">
            <mxPoint x="635" y="260" as="sourcePoint" />
            <mxPoint x="380" y="260" as="targetPoint" />
            <Array as="points">
              <mxPoint x="530" y="260" />
            </Array>
          </mxGeometry>
        </mxCell>
        <mxCell id="zRI3TL-ee5AhWv-r6EOS-46" value="display confirmation" style="html=1;verticalAlign=bottom;endArrow=open;dashed=1;endSize=8;edgeStyle=elbowEdgeStyle;elbow=vertical;curved=0;rounded=0;fontFamily=Times New Roman;fontSize=13;" parent="1" source="aM9ryv3xv72pqoxQDRHE-6" target="aM9ryv3xv72pqoxQDRHE-2" edge="1">
          <mxGeometry relative="1" as="geometry">
            <mxPoint x="365" y="280" as="sourcePoint" />
            <mxPoint x="110" y="280" as="targetPoint" />
            <Array as="points">
              <mxPoint x="260" y="280" />
            </Array>
          </mxGeometry>
        </mxCell>
        <mxCell id="zRI3TL-ee5AhWv-r6EOS-47" value="req to cancel order" style="html=1;verticalAlign=bottom;endArrow=block;edgeStyle=elbowEdgeStyle;elbow=vertical;curved=0;rounded=0;fontFamily=Times New Roman;fontSize=13;" parent="1" source="aM9ryv3xv72pqoxQDRHE-2" target="aM9ryv3xv72pqoxQDRHE-6" edge="1">
          <mxGeometry width="80" relative="1" as="geometry">
            <mxPoint x="270" y="630" as="sourcePoint" />
            <mxPoint x="350" y="630" as="targetPoint" />
            <Array as="points">
              <mxPoint x="230" y="740" />
            </Array>
          </mxGeometry>
        </mxCell>
        <mxCell id="zRI3TL-ee5AhWv-r6EOS-48" value="check cancel criteria" style="html=1;verticalAlign=bottom;endArrow=block;edgeStyle=elbowEdgeStyle;elbow=vertical;curved=0;rounded=0;fontFamily=Times New Roman;fontSize=13;" parent="1" source="aM9ryv3xv72pqoxQDRHE-6" target="zRI3TL-ee5AhWv-r6EOS-49" edge="1">
          <mxGeometry width="80" relative="1" as="geometry">
            <mxPoint x="380" y="740" as="sourcePoint" />
            <mxPoint x="635" y="740" as="targetPoint" />
            <Array as="points">
              <mxPoint x="460" y="760" />
              <mxPoint x="508" y="740" />
            </Array>
          </mxGeometry>
        </mxCell>
        <mxCell id="zRI3TL-ee5AhWv-r6EOS-49" value="" style="html=1;points=[];perimeter=orthogonalPerimeter;outlineConnect=0;targetShapes=umlLifeline;portConstraint=eastwest;newEdgeStyle={&quot;edgeStyle&quot;:&quot;elbowEdgeStyle&quot;,&quot;elbow&quot;:&quot;vertical&quot;,&quot;curved&quot;:0,&quot;rounded&quot;:0};fontFamily=Times New Roman;fontSize=13;" parent="1" vertex="1">
          <mxGeometry x="635" y="760" width="10" height="20" as="geometry" />
        </mxCell>
        <mxCell id="zRI3TL-ee5AhWv-r6EOS-50" value="&amp;nbsp;return result" style="html=1;verticalAlign=bottom;endArrow=open;dashed=1;endSize=8;edgeStyle=elbowEdgeStyle;elbow=vertical;curved=0;rounded=0;fontFamily=Times New Roman;fontSize=13;" parent="1" source="zRI3TL-ee5AhWv-r6EOS-49" target="aM9ryv3xv72pqoxQDRHE-6" edge="1">
          <mxGeometry relative="1" as="geometry">
            <mxPoint x="625" y="760" as="sourcePoint" />
            <mxPoint x="370" y="760" as="targetPoint" />
            <Array as="points">
              <mxPoint x="460" y="780" />
              <mxPoint x="460" y="770" />
              <mxPoint x="520" y="760" />
            </Array>
          </mxGeometry>
        </mxCell>
        <mxCell id="zRI3TL-ee5AhWv-r6EOS-51" value="receive result" style="html=1;verticalAlign=bottom;endArrow=open;dashed=1;endSize=8;edgeStyle=elbowEdgeStyle;elbow=vertical;curved=0;rounded=0;fontFamily=Times New Roman;fontSize=13;" parent="1" source="aM9ryv3xv72pqoxQDRHE-6" target="aM9ryv3xv72pqoxQDRHE-2" edge="1">
          <mxGeometry relative="1" as="geometry">
            <mxPoint x="375" y="780" as="sourcePoint" />
            <mxPoint x="120" y="780" as="targetPoint" />
            <Array as="points">
              <mxPoint x="350" y="800" />
              <mxPoint x="330" y="800" />
              <mxPoint x="300" y="790" />
              <mxPoint x="260" y="780" />
            </Array>
          </mxGeometry>
        </mxCell>
        <mxCell id="zRI3TL-ee5AhWv-r6EOS-65" value="logout" style="html=1;verticalAlign=bottom;endArrow=block;edgeStyle=elbowEdgeStyle;elbow=vertical;curved=0;rounded=0;fontFamily=Times New Roman;fontSize=13;" parent="1" source="aM9ryv3xv72pqoxQDRHE-2" target="aM9ryv3xv72pqoxQDRHE-6" edge="1">
          <mxGeometry width="80" relative="1" as="geometry">
            <mxPoint x="110" y="1050" as="sourcePoint" />
            <mxPoint x="365" y="1050" as="targetPoint" />
            <Array as="points">
              <mxPoint x="270" y="1060" />
              <mxPoint x="233" y="1050" />
            </Array>
          </mxGeometry>
        </mxCell>
        <mxCell id="zRI3TL-ee5AhWv-r6EOS-66" value="" style="group" parent="1" vertex="1" connectable="0">
          <mxGeometry y="810" width="720" height="230" as="geometry" />
        </mxCell>
        <mxCell id="zRI3TL-ee5AhWv-r6EOS-52" value="alt" style="shape=umlFrame;whiteSpace=wrap;html=1;pointerEvents=0;fontFamily=Times New Roman;fontSize=13;" parent="zRI3TL-ee5AhWv-r6EOS-66" vertex="1">
          <mxGeometry x="10" width="710" height="230" as="geometry" />
        </mxCell>
        <mxCell id="zRI3TL-ee5AhWv-r6EOS-53" value="[result = valid]" style="text;html=1;align=center;verticalAlign=middle;resizable=0;points=[];autosize=1;strokeColor=none;fillColor=none;" parent="zRI3TL-ee5AhWv-r6EOS-66" vertex="1">
          <mxGeometry x="5" y="38" width="100" height="30" as="geometry" />
        </mxCell>
        <mxCell id="zRI3TL-ee5AhWv-r6EOS-54" value="confirm cancellation" style="html=1;verticalAlign=bottom;endArrow=open;dashed=1;endSize=8;edgeStyle=elbowEdgeStyle;elbow=vertical;curved=0;rounded=0;fontFamily=Times New Roman;fontSize=13;" parent="zRI3TL-ee5AhWv-r6EOS-66" source="aM9ryv3xv72pqoxQDRHE-6" target="aM9ryv3xv72pqoxQDRHE-2" edge="1">
          <mxGeometry relative="1" as="geometry">
            <mxPoint x="365" y="20" as="sourcePoint" />
            <mxPoint x="110" y="20" as="targetPoint" />
            <Array as="points">
              <mxPoint x="255" y="20" />
            </Array>
          </mxGeometry>
        </mxCell>
        <mxCell id="zRI3TL-ee5AhWv-r6EOS-55" value="give refund" style="html=1;verticalAlign=bottom;endArrow=open;dashed=1;endSize=8;edgeStyle=elbowEdgeStyle;elbow=vertical;curved=0;rounded=0;fontFamily=Times New Roman;fontSize=13;" parent="zRI3TL-ee5AhWv-r6EOS-66" source="aM9ryv3xv72pqoxQDRHE-6" target="aM9ryv3xv72pqoxQDRHE-2" edge="1">
          <mxGeometry relative="1" as="geometry">
            <mxPoint x="365" y="40" as="sourcePoint" />
            <mxPoint x="110" y="40" as="targetPoint" />
            <Array as="points">
              <mxPoint x="255" y="40" />
            </Array>
          </mxGeometry>
        </mxCell>
        <mxCell id="zRI3TL-ee5AhWv-r6EOS-56" value="" style="endArrow=none;dashed=1;html=1;rounded=0;exitX=0.004;exitY=0.342;exitDx=0;exitDy=0;exitPerimeter=0;entryX=1;entryY=0.406;entryDx=0;entryDy=0;entryPerimeter=0;fontFamily=Times New Roman;fontSize=13;" parent="zRI3TL-ee5AhWv-r6EOS-66" source="zRI3TL-ee5AhWv-r6EOS-52" edge="1">
          <mxGeometry width="50" height="50" relative="1" as="geometry">
            <mxPoint x="10.709999999999923" y="79.46000000000004" as="sourcePoint" />
            <mxPoint x="720" y="80.37999999999988" as="targetPoint" />
          </mxGeometry>
        </mxCell>
        <mxCell id="zRI3TL-ee5AhWv-r6EOS-57" value="else" style="text;html=1;align=center;verticalAlign=middle;resizable=0;points=[];autosize=1;strokeColor=none;fillColor=none;" parent="zRI3TL-ee5AhWv-r6EOS-66" vertex="1">
          <mxGeometry y="85" width="50" height="30" as="geometry" />
        </mxCell>
        <mxCell id="zRI3TL-ee5AhWv-r6EOS-58" value="notify inability to cancel" style="html=1;verticalAlign=bottom;endArrow=open;dashed=1;endSize=8;edgeStyle=elbowEdgeStyle;elbow=vertical;curved=0;rounded=0;fontFamily=Times New Roman;fontSize=13;" parent="zRI3TL-ee5AhWv-r6EOS-66" source="aM9ryv3xv72pqoxQDRHE-6" target="aM9ryv3xv72pqoxQDRHE-2" edge="1">
          <mxGeometry relative="1" as="geometry">
            <mxPoint x="365" y="99.38" as="sourcePoint" />
            <mxPoint x="110" y="99.38" as="targetPoint" />
            <Array as="points">
              <mxPoint x="350" y="110" />
              <mxPoint x="250" y="99.38" />
            </Array>
          </mxGeometry>
        </mxCell>
        <mxCell id="zRI3TL-ee5AhWv-r6EOS-59" value="ask for fine" style="html=1;verticalAlign=bottom;endArrow=open;dashed=1;endSize=8;edgeStyle=elbowEdgeStyle;elbow=vertical;curved=0;rounded=0;fontFamily=Times New Roman;fontSize=13;" parent="zRI3TL-ee5AhWv-r6EOS-66" source="aM9ryv3xv72pqoxQDRHE-6" target="aM9ryv3xv72pqoxQDRHE-2" edge="1">
          <mxGeometry relative="1" as="geometry">
            <mxPoint x="365" y="130" as="sourcePoint" />
            <mxPoint x="110" y="130" as="targetPoint" />
            <Array as="points">
              <mxPoint x="345" y="130" />
              <mxPoint x="245" y="119.38" />
            </Array>
          </mxGeometry>
        </mxCell>
        <mxCell id="zRI3TL-ee5AhWv-r6EOS-60" value="pay fine(fine)" style="html=1;verticalAlign=bottom;endArrow=block;edgeStyle=elbowEdgeStyle;elbow=vertical;curved=0;rounded=0;fontFamily=Times New Roman;fontSize=13;" parent="zRI3TL-ee5AhWv-r6EOS-66" source="aM9ryv3xv72pqoxQDRHE-2" target="aM9ryv3xv72pqoxQDRHE-6" edge="1">
          <mxGeometry width="80" relative="1" as="geometry">
            <mxPoint x="110" y="150" as="sourcePoint" />
            <mxPoint x="365" y="150" as="targetPoint" />
            <Array as="points">
              <mxPoint x="238" y="150" />
            </Array>
          </mxGeometry>
        </mxCell>
        <mxCell id="zRI3TL-ee5AhWv-r6EOS-64" value="confirm cancellation" style="html=1;verticalAlign=bottom;endArrow=open;dashed=1;endSize=8;edgeStyle=elbowEdgeStyle;elbow=vertical;curved=0;rounded=0;fontFamily=Times New Roman;fontSize=13;" parent="zRI3TL-ee5AhWv-r6EOS-66" source="aM9ryv3xv72pqoxQDRHE-6" target="aM9ryv3xv72pqoxQDRHE-2" edge="1">
          <mxGeometry relative="1" as="geometry">
            <mxPoint x="365" y="210" as="sourcePoint" />
            <mxPoint x="110" y="210" as="targetPoint" />
            <Array as="points">
              <mxPoint x="250" y="210" />
            </Array>
          </mxGeometry>
        </mxCell>
        <mxCell id="zRI3TL-ee5AhWv-r6EOS-62" value="" style="html=1;points=[];perimeter=orthogonalPerimeter;outlineConnect=0;targetShapes=umlLifeline;portConstraint=eastwest;newEdgeStyle={&quot;edgeStyle&quot;:&quot;elbowEdgeStyle&quot;,&quot;elbow&quot;:&quot;vertical&quot;,&quot;curved&quot;:0,&quot;rounded&quot;:0};fontFamily=Times New Roman;fontSize=13;" parent="zRI3TL-ee5AhWv-r6EOS-66" vertex="1">
          <mxGeometry x="635" y="170" width="10" height="20" as="geometry" />
        </mxCell>
        <mxCell id="HNIjWtRmkuiPck9k-ykl-1" value="receive estimated time for delivery" style="html=1;verticalAlign=bottom;endArrow=open;dashed=1;endSize=8;edgeStyle=elbowEdgeStyle;elbow=vertical;curved=0;rounded=0;fontFamily=Times New Roman;fontSize=13;" parent="1" source="aM9ryv3xv72pqoxQDRHE-6" target="aM9ryv3xv72pqoxQDRHE-2" edge="1">
          <mxGeometry relative="1" as="geometry">
            <mxPoint x="365" y="700" as="sourcePoint" />
            <mxPoint x="110" y="700" as="targetPoint" />
            <Array as="points">
              <mxPoint x="250" y="710" />
            </Array>
          </mxGeometry>
        </mxCell>
        <mxCell id="zRI3TL-ee5AhWv-r6EOS-61" value="receive fine" style="html=1;verticalAlign=bottom;endArrow=block;edgeStyle=elbowEdgeStyle;elbow=vertical;curved=0;rounded=0;fontFamily=Times New Roman;fontSize=13;" parent="1" source="aM9ryv3xv72pqoxQDRHE-6" target="zRI3TL-ee5AhWv-r6EOS-62" edge="1">
          <mxGeometry width="80" relative="1" as="geometry">
            <mxPoint x="380" y="980" as="sourcePoint" />
            <mxPoint x="635" y="980" as="targetPoint" />
            <Array as="points">
              <mxPoint x="503" y="980" />
            </Array>
          </mxGeometry>
        </mxCell>
        <mxCell id="zRI3TL-ee5AhWv-r6EOS-63" value="return validity" style="html=1;verticalAlign=bottom;endArrow=open;dashed=1;endSize=8;edgeStyle=elbowEdgeStyle;elbow=vertical;curved=0;rounded=0;fontFamily=Times New Roman;fontSize=13;" parent="1" source="zRI3TL-ee5AhWv-r6EOS-62" target="aM9ryv3xv72pqoxQDRHE-6" edge="1">
          <mxGeometry relative="1" as="geometry">
            <mxPoint x="553" y="1000" as="sourcePoint" />
            <mxPoint x="298" y="1000" as="targetPoint" />
            <Array as="points">
              <mxPoint x="528" y="1000" />
              <mxPoint x="428" y="989.38" />
            </Array>
          </mxGeometry>
        </mxCell>
      </root>
    </mxGraphModel>
  </diagram>
</mxfile>
